<svg width="190" height="190" viewBox="0 0 190 190" fill="none" xmlns="http://www.w3.org/2000/svg">
<path d="M61.3192 78.944L75.7192 56.696C75.9592 56.312 76.1752 55.976 76.3672 55.688C76.5592 55.4 76.7272 55.136 76.8712 54.896C78.5992 52.208 79.8712 49.976 80.6872 48.2C81.5032 46.424 81.9112 44.408 81.9112 42.152C81.9112 37.64 80.3272 35.384 77.1592 35.384C74.9992 35.384 73.4872 36.224 72.6232 37.904C71.7592 39.584 71.3272 41.84 71.3272 44.672V47.12H61.5352V44.528C61.5352 39.056 62.7592 34.784 65.2072 31.712C67.7032 28.592 71.5912 27.032 76.8712 27.032C81.7672 27.032 85.4872 28.376 88.0312 31.064C90.5752 33.704 91.8472 37.424 91.8472 42.224C91.8472 45.2 91.3192 47.84 90.2632 50.144C89.2552 52.448 87.6712 55.28 85.5112 58.64L84.6472 59.936L72.6232 78.008H90.3352V86H61.3192V78.944ZM113.31 86.792C108.174 86.792 104.334 85.04 101.79 81.536C99.2939 78.032 98.0459 73.4 98.0459 67.64V47.192C98.0459 40.904 99.1739 35.984 101.43 32.432C103.734 28.832 107.67 27.032 113.238 27.032C118.23 27.032 121.878 28.256 124.182 30.704C126.534 33.152 127.758 36.8 127.854 41.648V42.584H118.278C118.278 39.8 117.942 37.808 117.27 36.608C116.598 35.408 115.278 34.808 113.31 34.808C111.39 34.808 110.022 35.72 109.206 37.544C108.438 39.32 108.054 42.416 108.054 46.832V53.744C108.774 52.592 109.83 51.704 111.222 51.08C112.662 50.456 114.318 50.144 116.19 50.144C124.398 50.144 128.502 55.736 128.502 66.92C128.502 80.168 123.438 86.792 113.31 86.792ZM113.382 79.088C115.302 79.088 116.622 78.224 117.342 76.496C118.11 74.768 118.494 72.2 118.494 68.792C118.494 66.152 118.398 64.112 118.206 62.672C118.062 61.184 117.606 59.984 116.838 59.072C116.118 58.16 114.942 57.704 113.31 57.704C112.158 57.704 111.102 58.016 110.142 58.64C109.23 59.264 108.534 59.984 108.054 60.8V69.944C108.054 72.68 108.462 74.888 109.278 76.568C110.094 78.248 111.462 79.088 113.382 79.088Z" fill="#F7654A"/>
<path d="M62.186 175.596H64.634V179.79H66.74V175.596H69.188V186H66.74V181.518H64.634V186H62.186V175.596ZM73.079 186.162C72.635 186.162 72.239 186.042 71.891 185.802C71.555 185.562 71.291 185.256 71.099 184.884C70.919 184.5 70.829 184.104 70.829 183.696C70.829 182.892 71.015 182.232 71.387 181.716C71.771 181.188 72.239 180.78 72.791 180.492C73.355 180.204 74.099 179.886 75.023 179.538V178.638C75.023 178.158 74.963 177.81 74.843 177.594C74.735 177.366 74.519 177.252 74.195 177.252C73.643 177.252 73.355 177.636 73.331 178.404L73.295 179.034L70.973 178.944C71.009 177.744 71.303 176.862 71.855 176.298C72.419 175.722 73.265 175.434 74.393 175.434C75.413 175.434 76.169 175.716 76.661 176.28C77.153 176.832 77.399 177.618 77.399 178.638V183.444C77.399 184.188 77.459 185.04 77.579 186H75.383C75.263 185.352 75.179 184.854 75.131 184.506C74.987 184.974 74.741 185.37 74.393 185.694C74.057 186.006 73.619 186.162 73.079 186.162ZM73.979 184.344C74.183 184.344 74.375 184.272 74.555 184.128C74.747 183.984 74.903 183.828 75.023 183.66V180.744C74.387 181.116 73.913 181.476 73.601 181.824C73.289 182.16 73.133 182.586 73.133 183.102C73.133 183.486 73.205 183.792 73.349 184.02C73.505 184.236 73.715 184.344 73.979 184.344ZM83.5786 175.596H86.0266V176.388C86.6866 175.752 87.3946 175.434 88.1506 175.434C88.9906 175.434 89.5846 175.782 89.9326 176.478C90.2806 177.174 90.4546 177.984 90.4546 178.908V182.436C90.4546 183.552 90.2566 184.452 89.8606 185.136C89.4766 185.82 88.8646 186.162 88.0246 186.162C87.3526 186.162 86.6866 185.85 86.0266 185.226V189.42H83.5786V175.596ZM87.1066 184.452C87.4546 184.452 87.6886 184.284 87.8086 183.948C87.9406 183.612 88.0066 183.138 88.0066 182.526V178.782C88.0066 178.242 87.9406 177.822 87.8086 177.522C87.6766 177.222 87.4366 177.072 87.0886 177.072C86.7286 177.072 86.3746 177.222 86.0266 177.522V184.092C86.3626 184.332 86.7226 184.452 87.1066 184.452ZM92.1391 175.596H94.5871V179.826H94.7851C95.7811 179.838 96.5791 179.934 97.1791 180.114C97.7791 180.294 98.2231 180.606 98.5111 181.05C98.8111 181.494 98.9611 182.112 98.9611 182.904C98.9611 183.66 98.8171 184.266 98.5291 184.722C98.2531 185.166 97.8031 185.49 97.1791 185.694C96.5671 185.898 95.7391 186 94.6951 186H92.1391V175.596ZM100.113 175.596H102.561V186H100.113V175.596ZM94.6771 184.578C95.4571 184.578 95.9971 184.464 96.2971 184.236C96.5971 183.996 96.7471 183.558 96.7471 182.922C96.7471 182.502 96.6871 182.178 96.5671 181.95C96.4471 181.71 96.2431 181.542 95.9551 181.446C95.6671 181.35 95.2591 181.296 94.7311 181.284H94.5871V184.578H94.6771ZM104.426 175.596H106.874V179.79H108.98V175.596H111.428V186H108.98V181.518H106.874V186H104.426V175.596ZM113.303 175.596H115.751V179.844H116.237L118.001 175.596H120.593L118.469 180.564L120.647 186H118.055L116.237 181.266H115.751V186H113.303V175.596ZM124.803 186.162C123.651 186.162 122.805 185.844 122.265 185.208C121.725 184.56 121.455 183.606 121.455 182.346V179.25C121.455 177.978 121.725 177.024 122.265 176.388C122.817 175.752 123.663 175.434 124.803 175.434C125.979 175.434 126.807 175.764 127.287 176.424C127.779 177.084 128.025 178.08 128.025 179.412V180.906H123.885V182.958C123.885 183.462 123.957 183.828 124.101 184.056C124.257 184.284 124.497 184.398 124.821 184.398C125.133 184.398 125.355 184.29 125.487 184.074C125.631 183.846 125.703 183.504 125.703 183.048V182.166H128.007V182.886C128.007 183.954 127.737 184.77 127.197 185.334C126.657 185.886 125.859 186.162 124.803 186.162ZM125.703 179.7V178.71C125.703 178.17 125.637 177.786 125.505 177.558C125.373 177.318 125.139 177.198 124.803 177.198C124.455 177.198 124.215 177.324 124.083 177.576C123.951 177.828 123.885 178.296 123.885 178.98V179.7H125.703Z" fill="#999999"/>
<path d="M68.6019 150.184C69.8259 150.208 70.7019 150.016 71.2299 149.608C71.7819 149.176 72.2019 148.216 72.4899 146.728C72.7779 145.24 73.0539 142.684 73.3179 139.06L74.2539 124.84H88.4379V154H83.1459V128.836H78.9339L78.3219 139.708C78.0819 143.596 77.7579 146.488 77.3499 148.384C76.9419 150.256 76.1739 151.672 75.0459 152.632C73.9419 153.568 72.2259 154.036 69.8979 154.036C69.3459 154.036 68.9139 154.024 68.6019 154V150.184ZM92.9421 124.84H105.182V128.584H98.2341V136.972H103.706V140.68H98.2341V150.364H105.254V154H92.9421V124.84ZM111.257 128.764H106.613V124.84H121.121V128.764H116.585V154H111.257V128.764Z" fill="black"/>
</svg>
